<svg xmlns="http://www.w3.org/2000/svg" width="24" height="24" viewBox="0 0 24 24">
  <defs>
    <style>
      .cls-1 {
        fill: #707480;
        fill-rule: evenodd;
      }
    </style>
  </defs>
  <path id="ico_marmore.svg" class="cls-1" d="M1006,252V228h24v24h-24Zm22-22h-12.58c0.03,0.05.06,0.092,0.09,0.143l0.09,0.168a8.994,8.994,0,0,1,.48.992,5.98,5.98,0,0,1,.37,1.393l0.02,0.088a10.774,10.774,0,0,0,.22,1.34,2.237,2.237,0,0,0,.25.615,1.651,1.651,0,0,0,.4.468l0.22,0.109,0.02,0.064c0.15,0.1.3,0.194,0.46,0.286,0.18,0.111.37,0.225,0.55,0.352a9.544,9.544,0,0,1,1.18.889c0.04,0.033.08,0.068,0.12,0.1a0.259,0.259,0,0,1,.05-0.049,4.118,4.118,0,0,1,.73-0.609,2.7,2.7,0,0,1,.64-0.279l0.03-.008a2.042,2.042,0,0,1,.27-0.019,1.2,1.2,0,0,1,.58.134,1.511,1.511,0,0,1,.52.419c0.03,0.034.07,0.068,0.1,0.1l0.47,0.576a11.132,11.132,0,0,1,1.34,2.394,5.626,5.626,0,0,1,.31.865c0.03,0.108.05,0.184,0.07,0.233l-0.49.163a1.535,1.535,0,0,0-.09-0.206l-0.01-.035a6.172,6.172,0,0,0-.32-0.771,11.17,11.17,0,0,0-1.36-2.213l-0.46-.558a0.97,0.97,0,0,0-.39-0.321l-0.04-.015a0.439,0.439,0,0,0-.2-0.046,0.566,0.566,0,0,0-.18.03l-0.04.01a1.158,1.158,0,0,0-.39.183,4.19,4.19,0,0,0-.59.515c0.12,0.1.23,0.2,0.35,0.294a3.583,3.583,0,0,1,.85,1.008,3.921,3.921,0,0,1,.36,1.067,2.41,2.41,0,0,1-.07.93l-0.49-.144a2.21,2.21,0,0,0,.02-0.708,1.747,1.747,0,0,0-.29-0.836,3.387,3.387,0,0,0-.77-0.846c-0.12-.1-0.24-0.2-0.36-0.307-0.21-.186-0.43-0.379-0.66-0.555a7.98,7.98,0,0,0-1.16-.819c-0.11-.066-0.23-0.13-0.34-0.194s-0.23-.127-0.34-0.193c-0.03.161-.06,0.335-0.09,0.537a5.01,5.01,0,0,0-.02.552v0.568c0.01,0.093.02,0.193,0.03,0.293a2.367,2.367,0,0,0,.02.273,4.278,4.278,0,0,0,.12.56l0.18,0.547a2.239,2.239,0,0,0,.22.475,2.616,2.616,0,0,0,.14.272c0.04,0.089.09,0.177,0.14,0.273a4.611,4.611,0,0,0,.3.449l0.36,0.459a2.679,2.679,0,0,0,.39.368l0.45,0.372c0.11,0.084.21,0.154,0.33,0.235l0.13,0.083c0.09,0.046.17,0.092,0.25,0.137s0.16,0.09.25,0.135a3.408,3.408,0,0,0,.46.187l1.57-.059,0.17,0.062a4.324,4.324,0,0,1,1.43,3.077l-0.52.015a3.756,3.756,0,0,0-1.19-2.589l-1.51.085-0.09-.013a3.594,3.594,0,0,1-.58-0.231,5.809,5.809,0,0,1-.53-0.288,2.112,2.112,0,0,1-.27-0.159,2.353,2.353,0,0,0-.23-0.142l-0.05-.03-0.45-.372a5.346,5.346,0,0,1-.45-0.422,5.587,5.587,0,0,1-.41-0.487c-0.12-.157-0.25-0.319-0.38-0.515a5.541,5.541,0,0,1-.32-0.555,4.552,4.552,0,0,1-.25-0.593c-0.02-.051-0.04-0.1-0.06-0.155a1.9,1.9,0,0,1-.13-0.456,2.75,2.75,0,0,1-.08-0.3,2.269,2.269,0,0,0-.07-0.27l-0.01-.04c-0.03-.188-0.06-0.407-0.09-0.626a7.22,7.22,0,0,1,0-1.315c0.02-.109.08-0.512,0.09-0.62a1.725,1.725,0,0,1,.05-0.248,1.87,1.87,0,0,1-.5-0.6,2.376,2.376,0,0,1-.33-0.786,7.023,7.023,0,0,1-.2-0.985c-0.02-.164-0.05-0.326-0.08-0.484a4.436,4.436,0,0,0-.21-0.856c0,0.052.01,0.1,0.01,0.139a1.95,1.95,0,0,1,.02.231,2.2,2.2,0,0,1-.04.485,7.776,7.776,0,0,1-.43,1.646l-0.07.2c-0.14.393-.27,0.766-0.37,1.15a2.394,2.394,0,0,1,.53,2.47l-0.49-.181a1.787,1.787,0,0,0-.58-1.936l-0.02-.024-0.03-.031-0.08-.186v-0.074a9.062,9.062,0,0,1,.42-1.486l0.05-.14a9.624,9.624,0,0,0,.35-1.524V232.39c0-.053-0.01-0.113-0.01-0.173a1.917,1.917,0,0,1-.02-0.23,5.5,5.5,0,0,0-.12-0.62L1014.35,230H1008v20h4.69a4.239,4.239,0,0,1-.41-0.647,2.959,2.959,0,0,1-.37-1.213l-0.03-.006c-0.01-.01-0.03-0.055-0.09-0.134a1.443,1.443,0,0,0-.36-0.285,2.483,2.483,0,0,0-.78-0.254c-0.13-.035-0.26-0.06-0.41-0.088a5.639,5.639,0,0,1-.79-0.195,3.069,3.069,0,0,1-1.36-.917h0l-0.04.033-0.05,0v-1.643a3.549,3.549,0,0,0,.66,1.112,2.426,2.426,0,0,0,1.03.668,9.447,9.447,0,0,0,1.06.226l0.1,0.016a3.635,3.635,0,0,1,1.01.3,1.69,1.69,0,0,1,.16.094,8.689,8.689,0,0,1,.36-0.913l0.04-.086a1.835,1.835,0,0,0,.22-0.683,1.962,1.962,0,0,0,.03-0.688,3.217,3.217,0,0,0-.51-1.348,13.621,13.621,0,0,0-1-1.376c-0.3-.372-0.61-0.756-0.87-1.153a6.76,6.76,0,0,1-1.13-3,11.892,11.892,0,0,1-.01-2.981c0.03-.288.06-0.577,0.11-0.856,0.37-1.885.7-.566,0.56,0.179a6.416,6.416,0,0,0-.09.762,10.875,10.875,0,0,0,.03,2.816,6.142,6.142,0,0,0,1.04,2.709c0.25,0.36.53,0.708,0.8,1.044a13.153,13.153,0,0,1,1.12,1.516,4.041,4.041,0,0,1,.61,1.622,3.157,3.157,0,0,1-.03.868,2.292,2.292,0,0,1-.19.675l-0.06.164c-0.05.124-.1,0.246-0.15,0.368a3.349,3.349,0,0,0-.29,1.029l-0.01.033-0.01,0-0.02.073h0.03a2.015,2.015,0,0,0,.31,1.123,5.982,5.982,0,0,0,.78,1.036h8.73l-0.36-.458a2.679,2.679,0,0,0-.39-0.368l-0.45-.372c-0.11-.084-0.21-0.154-0.33-0.235l-0.13-.083c-0.09-.046-0.17-0.092-0.25-0.137s-0.16-.09-0.25-0.135a3.283,3.283,0,0,0-.46-0.187l-1.57.059-0.17-.062a4.324,4.324,0,0,1-1.43-3.077l0.52-.015a3.756,3.756,0,0,0,1.19,2.589l1.51-.085,0.09,0.013a3.594,3.594,0,0,1,.58.231,5.809,5.809,0,0,1,.53.288,2.112,2.112,0,0,1,.27.159,2.353,2.353,0,0,0,.23.142l0.05,0.03,0.45,0.372a5.346,5.346,0,0,1,.45.422,5.587,5.587,0,0,1,.41.487c0.1,0.129.21,0.271,0.31,0.422H1028V230Z" transform="translate(-1006 -228)"/>
</svg>
