<svg xmlns="http://www.w3.org/2000/svg" width="24" height="24" viewBox="0 0 24 24">
  <defs>
    <style>
      .cls-1 {
        fill: #707480;
        fill-rule: evenodd;
      }
    </style>
  </defs>
  <path id="ico_madeira.svg" class="cls-1" d="M972,252V228h24v24H972Zm17.373-2a22.218,22.218,0,0,0,1.792-2.351,2.406,2.406,0,0,0,.644-1.637,0.972,0.972,0,0,0-.87.154,12.722,12.722,0,0,0-3.681,3.008c-0.265.277-.54,0.551-0.814,0.826h2.929Zm-3.565,0c0.386-.373.763-0.76,1.13-1.145a13.064,13.064,0,0,1,3.823-3.107c0.263-.115,1.054-0.457,1.395-0.021a0.657,0.657,0,0,1,.126.418,3.986,3.986,0,0,1-.75,1.763A22.763,22.763,0,0,1,989.969,250h2.954c0.381-.382.739-0.77,1.077-1.159v-5.364l-0.175.027c-0.147.024-.279,0.045-0.385,0.059a12.105,12.105,0,0,0-5.865,2.573c-0.6.458-1.244,1-1.929,1.569-0.921.767-1.9,1.57-2.887,2.295h3.049ZM982,250c1.142-.8,2.294-1.755,3.367-2.649,0.69-.574,1.341-1.116,1.941-1.577a12.528,12.528,0,0,1,6.072-2.662c0.11-.015.236-0.035,0.378-0.058l0.244-.037v-0.652a22.691,22.691,0,0,0-5.264,1.545c-1.555.676-3.077,1.5-4.548,2.288-0.753.405-1.5,0.81-2.266,1.2a20.848,20.848,0,0,0-2.462,1.735q-0.569.441-1.144,0.868H982Zm-8,0h3.546c0.549-.387,1.1-0.81,1.646-1.231a20.9,20.9,0,0,1,2.525-1.777c0.763-.39,1.513-0.794,2.263-1.2,1.479-.8,3.009-1.621,4.582-2.3A22.816,22.816,0,0,1,994,241.917v-0.911c-2.292.093-4.642,0.226-6.416,1.776-1.94,1.8-4.022,2.237-6.433,2.736-0.55.114-1.116,0.231-1.7,0.37l-0.221.054A15.853,15.853,0,0,0,974,247.961V250Zm0-4.708a2.793,2.793,0,0,0,.989-1.991,0.7,0.7,0,0,0-.319-0.577,0.914,0.914,0,0,0-.67.073v2.5Zm0-2.977a1.19,1.19,0,0,1,.845-0.011,1.108,1.108,0,0,1,.584.922,1.478,1.478,0,0,1,.017.222A3.961,3.961,0,0,1,974,245.932v1.476a17.162,17.162,0,0,1,5.13-1.909l0.222-.056c0.587-.14,1.156-0.257,1.711-0.372,2.347-.487,4.373-0.906,6.226-2.631,1.9-1.66,4.338-1.795,6.711-1.891v-1.512c-0.19.026-.374,0.069-0.567,0.088-1.986.171-3.468-1.044-4.9-2.219a9.156,9.156,0,0,0-3.511-2.105c-2.586-.6-4.953.7-7.126,2.2-1.172.768-2.38,1.559-3.623,2.244-0.1.061-.179,0.118-0.271,0.176v2.9Zm0-3.435c0.019-.011.034-0.023,0.053-0.034,1.235-.681,2.435-1.468,3.6-2.228,2.251-1.554,4.718-2.9,7.47-2.263a9.5,9.5,0,0,1,3.691,2.194c1.428,1.171,2.777,2.276,4.584,2.12,0.205-.019.4-0.065,0.606-0.094V236.84c-0.076,0-.147.009-0.224,0a17.42,17.42,0,0,1-4.718-1.327,10.082,10.082,0,0,1-1.881-1.095,8.884,8.884,0,0,0-1.9-1.084,5.179,5.179,0,0,0-4.154.288c-0.615.273-1.247,0.5-1.858,0.727a20.289,20.289,0,0,0-2.345.965c-0.206.1-.465,0.255-0.754,0.422A16.733,16.733,0,0,1,974,236.847v2.033Zm0-3.933a18.707,18.707,0,0,0,2.523-1.067c0.175-.086.339-0.165,0.489-0.236a5.32,5.32,0,0,0,2.414-2.092c0.079-.15.155-0.3,0.188-0.382a2.536,2.536,0,0,0-.458,0,8.778,8.778,0,0,0-2.367.569c-0.381.128-.741,0.25-1.1,0.345a12.1,12.1,0,0,0-1.665.689l-0.028.013v2.163Zm0-4.421c0.148-.073.291-0.141,0.442-0.216,0.207-.1.421-0.206,0.633-0.31h1.052c-0.507.234-1.006,0.481-1.49,0.721-0.218.108-.425,0.207-0.637,0.31v1.253a11.586,11.586,0,0,1,1.574-.642c0.348-.092.7-0.211,1.075-0.338a9.116,9.116,0,0,1,2.486-.592,0.916,0.916,0,0,1,.888.2,0.357,0.357,0,0,1,.056.194,1.591,1.591,0,0,1-.245.632l-0.024.046a5.725,5.725,0,0,1-2.6,2.271c-0.155.073-.318,0.152-0.492,0.237A18.279,18.279,0,0,1,974,235.427v0.931a18.221,18.221,0,0,0,1.947-1.016c0.3-.172.561-0.325,0.774-0.433a21.115,21.115,0,0,1,2.394-.987c0.6-.22,1.23-0.448,1.836-0.717a5.563,5.563,0,0,1,4.479-.3,9.3,9.3,0,0,1,2,1.134,9.727,9.727,0,0,0,1.8,1.052,16.965,16.965,0,0,0,4.584,1.294c0.064,0,.124-0.005.187,0V234.27c-2.205.4-4.544-.257-7.111-2.025-0.457-.315-0.9-0.657-1.338-0.987-0.586-.447-1.16-0.88-1.753-1.258h0.8c0.414,0.289.822,0.588,1.22,0.891,0.429,0.327.872,0.666,1.321,0.975,2.493,1.718,4.75,2.349,6.862,1.942v-1.574a4.475,4.475,0,0,1-3.419.034,11.791,11.791,0,0,1-2.966-1.788l-0.306-.229c-0.1-.078-0.2-0.167-0.295-0.251h0.714l0.15,0.112a11.42,11.42,0,0,0,2.862,1.73,4.1,4.1,0,0,0,3.26-.092v-1.663a4.768,4.768,0,0,1-2.212.717,2.518,2.518,0,0,1-1.654-.8H974v0.526ZM993.168,230h-2.324a1.675,1.675,0,0,0,.944.348A3.5,3.5,0,0,0,993.168,230ZM994,230h0Zm0,19.058v0.473c-0.143.156-.293,0.314-0.443,0.469H994v-0.942Zm-12.318-11.834a5.8,5.8,0,0,1,4.669-.134,2.144,2.144,0,0,1,1.151,2.868c-0.668,1.512-3.078,2.4-4.834,2.941l-0.163.044c-1.153.311-2.9,0.78-4.056,0.186a2,2,0,0,1-1.236-2.092v-0.108C977.268,238.685,980.361,237.661,981.682,237.224Zm-3.054,5.489c1.03,0.525,2.675.083,3.763-.21l0.157-.042c1.057-.325,3.887-1.193,4.546-2.688a1.736,1.736,0,0,0-.939-2.273,5.419,5.419,0,0,0-4.33.156c-1.237.41-4.119,1.364-4.166,3.285v0.1A1.556,1.556,0,0,0,978.628,242.713Zm3.171-3.484c0.831-.542,2.031-1.065,2.677-0.758a0.91,0.91,0,0,1,.64.775h0a1.193,1.193,0,0,1-.613.891,5.638,5.638,0,0,1-3.538,1.013,0.511,0.511,0,0,1-.423-0.5A2.582,2.582,0,0,1,981.8,239.229Zm-0.7,1.486a5.385,5.385,0,0,0,3.147-.95,0.782,0.782,0,0,0,.424-0.519,0.6,0.6,0,0,0-.383-0.361,3.211,3.211,0,0,0-2.249.728,2.243,2.243,0,0,0-1.051,1.04A0.165,0.165,0,0,0,981.1,240.715Z" transform="translate(-972 -228)"/>
</svg>
