<svg xmlns="http://www.w3.org/2000/svg" width="24" height="24" viewBox="0 0 24 24">
  <defs>
    <style>
      .cls-1 {
        fill: #707480;
        fill-rule: evenodd;
      }
    </style>
  </defs>
  <path id="ico_metal.svg" class="cls-1" d="M1108,252V228h24v24h-24Zm22-22h-3.58a17.378,17.378,0,0,1-2.07,2.347c-1.34,1.343-2.55,2.309-2.69,2.175s0.84-1.342,2.18-2.685a24.582,24.582,0,0,1,2.07-1.837h-1.44c-0.34.391-.73,0.807-1.19,1.273-1.35,1.343-2.56,2.309-2.69,2.175s0.83-1.343,2.18-2.685c0.25-.279.53-0.532,0.78-0.763h-1.18c-0.06.066-.13,0.133-0.2,0.2-1.34,1.343-2.55,2.309-2.68,2.175s0.68-1.158,1.86-2.374h-1.18a4.61,4.61,0,0,1-1.75,1.3,3.059,3.059,0,0,1,.87-1.3h-4.77a17.6,17.6,0,0,1-2.09,2.4,16.723,16.723,0,0,1-2.43,2.112v-0.47a18.159,18.159,0,0,1,1.92-2.152,18.933,18.933,0,0,1,2.11-1.891h-1.43c-0.36.394-.78,0.86-1.25,1.327s-0.95.927-1.35,1.275v-0.889c0.26-.264.53-0.554,0.84-0.87,0.29-.316.61-0.58,0.87-0.843h-1.18c-0.07.075-.15,0.152-0.25,0.253a3.231,3.231,0,0,1-.28.281V230h0v20h3.17a2.9,2.9,0,0,1-.85-1.246,4.37,4.37,0,0,1,1.73,1.246h1.18c-1.16-1.216-1.97-2.214-1.84-2.347s1.35,0.832,2.69,2.175c0.06,0.065.11,0.113,0.17,0.172h1.18c-0.25-.231-0.51-0.483-0.76-0.736-1.34-1.343-2.31-2.551-2.17-2.685s1.34,0.832,2.68,2.175c0.44,0.44.83,0.878,1.17,1.246h1.41a21.177,21.177,0,0,1-2.02-1.81c-1.34-1.343-2.3-2.551-2.17-2.685s1.34,0.832,2.68,2.175a18.159,18.159,0,0,1,2.04,2.32h4.75a2.932,2.932,0,0,1-.85-1.273,4.633,4.633,0,0,1,1.72,1.273h1.19c-1.16-1.19-1.97-2.215-1.84-2.347s1.35,0.832,2.69,2.175c0.06,0.065.11,0.113,0.17,0.172h1.18c-0.23-.231-0.51-0.483-0.76-0.736-1.34-1.343-2.31-2.551-2.18-2.685s1.35,0.832,2.69,2.175c0.34,0.343.66,0.66,0.95,0.977V250h0V230Zm-2.54,15.478c0.14-.134,1.26.745,2.54,2.025v1.02c-0.1-.1-0.23-0.232-0.36-0.36C1128.3,246.82,1127.33,245.612,1127.46,245.478Zm2.54-.068v0.937a5.293,5.293,0,0,1-1.46-1.943A3.134,3.134,0,0,1,1130,245.41Zm-4.63-9.706c0.13-.135,1.34.832,2.69,2.175a23.889,23.889,0,0,1,1.94,2.207V240.5a15.9,15.9,0,0,1-2.45-2.112C1126.2,237.046,1125.24,235.838,1125.37,235.7Zm1.07-1.074c0.14-.135,1.35.832,2.69,2.175,0.32,0.316.61,0.631,0.87,0.922v0.889c-0.4-.373-0.88-0.8-1.38-1.3C1127.28,235.972,1126.31,234.764,1126.44,234.63Zm1.08-1.075c0.13-.133,1.22.745,2.48,1.972v1.02c-0.1-.1-0.2-0.2-0.31-0.306C1128.35,234.9,1127.38,233.69,1127.52,233.555Zm2.48-.148v0.937a5.419,5.419,0,0,1-1.41-1.889A2.866,2.866,0,0,1,1130,233.407Zm-7.26,2.216c-0.14-.134.83-1.343,2.17-2.685s2.55-2.309,2.69-2.175-0.83,1.342-2.18,2.685S1122.87,235.757,1122.74,235.623Zm0.43,2.793c0.13,0.134-.83,1.342-2.18,2.685s-2.55,2.309-2.68,2.175c-0.16-.134.83-1.343,2.17-2.685S1123.03,238.281,1123.17,238.416Zm-4.3-3.249c-1.34-1.343-2.31-2.551-2.17-2.686s1.34,0.833,2.68,2.175,2.31,2.551,2.18,2.686C1121.4,237.5,1120.21,236.509,1118.87,235.167Zm1.59,3.276c-0.14.134-1.35-.833-2.69-2.175s-2.31-2.551-2.17-2.686,1.34,0.833,2.68,2.175S1120.59,238.308,1120.46,238.443Zm-9.64-2.766c-0.14-.134.83-1.343,2.17-2.685s2.55-2.31,2.69-2.175-0.84,1.342-2.18,2.685S1110.95,235.811,1110.82,235.677ZM1110,240.2v-0.909a3.361,3.361,0,0,1,1.33-.9C1111.46,238.5,1110.88,239.239,1110,240.2Zm2.43-.734c0.13,0.134-.83,1.343-2.18,2.685-0.1.1-.17,0.177-0.25,0.253v-1.02C1111.23,240.181,1112.29,239.329,1112.43,239.463Zm1.07,1.1c0.14,0.134-.83,1.343-2.17,2.685-0.48.477-.93,0.9-1.33,1.248v-0.916c0.24-.264.53-0.553,0.82-0.842C1112.16,241.4,1113.37,240.43,1113.5,240.564Zm1.08,1.074c0.13,0.134-.84,1.343-2.18,2.685a16.814,16.814,0,0,1-2.4,2.085v-0.469a17.688,17.688,0,0,1,1.89-2.126C1113.23,242.47,1114.44,241.5,1114.58,241.638Zm1.07,1.074c0.13,0.134-.83,1.343-2.18,2.685s-2.55,2.31-2.68,2.175,0.83-1.342,2.17-2.685S1115.52,242.578,1115.65,242.712Zm-3.28-5.907c0.14-.135,1.35.832,2.69,2.175s2.31,2.551,2.17,2.685c-0.16.161-1.34-.833-2.68-2.175S1112.24,236.939,1112.37,236.805Zm2.15-2.149c0.14-.134,1.34.833,2.69,2.175s2.31,2.551,2.17,2.686-1.34-.833-2.68-2.175S1114.39,234.791,1114.52,234.656Zm1.1,3.76c-1.34-1.343-2.31-2.551-2.17-2.685s1.34,0.832,2.68,2.175,2.31,2.55,2.18,2.685S1116.97,239.758,1115.62,238.416Zm3.74,8.163c1.34,1.342,2.3,2.551,2.17,2.685s-1.34-.832-2.68-2.175-2.31-2.551-2.18-2.685S1118.01,245.236,1119.36,246.579Zm4.35-2.739c1.34-1.343,2.55-2.309,2.68-2.175,0.16,0.134-.83,1.342-2.17,2.685s-2.56,2.309-2.69,2.175S1122.36,245.182,1123.71,243.84Zm3.27-4.887c1.34,1.342,2.31,2.551,2.18,2.685s-1.35-.832-2.69-2.175-2.31-2.551-2.17-2.685S1125.64,237.61,1126.98,238.953Zm-7.6,5.424c-0.13-.134.83-1.343,2.18-2.685s2.55-2.336,2.68-2.175c0.14,0.134-.83,1.342-2.17,2.685S1119.52,244.511,1119.38,244.377Zm5.94-3.786c0.13,0.134-.84,1.342-2.18,2.685s-2.55,2.309-2.68,2.175,0.83-1.343,2.17-2.685S1125.18,240.456,1125.32,240.591Zm2.17,2.148c0.14,0.134-.83,1.342-2.17,2.685s-2.55,2.309-2.69,2.175,0.83-1.343,2.18-2.685S1127.33,242.605,1127.49,242.739Z" transform="translate(-1108 -228)"/>
</svg>
