<?xml version="1.0" encoding="utf-8"?>
<svg xmlns="http://www.w3.org/2000/svg"
	xmlns:xlink="http://www.w3.org/1999/xlink"
	width="24px" height="24px" viewBox="0 0 24 24">
  <defs>
    <style>
      .cls-1 {
        fill: #707480;
        fill-rule: evenodd;
      }
    </style>
  </defs>
<path id="ico_superficie_polido.svg" class="cls-1" d="M968,188V164h24v24H968Zm22-22H970v20h20V166Zm-12.957,7.043a9.8,9.8,0,0,0,2.111-4.017L979.5,168l0.346,1.025a7.639,7.639,0,0,0,6.128,6.129L987,175.5l-1.025.346a7.639,7.639,0,0,0-6.129,6.128L979.5,183l-0.346-1.026a7.64,7.64,0,0,0-6.128-6.128L972,175.5l1.026-.346A9.8,9.8,0,0,0,977.043,173.043Zm2.457,5.225c1.125-2.973-.205-1.643,2.768-2.768-2.973-1.125-1.643.205-2.768-2.768-1.125,2.973.206,1.643-2.768,2.768C979.706,176.625,978.375,175.3,979.5,178.268Zm-5.5,1.611V179h1v0.879L976.121,181H977v1h-0.879L975,183.121V184h-1v-0.879L972.879,182H972v-1h0.879ZM974,182h1v-1h-1v1Z" transform="translate(-968 -164)"/></svg>