<svg xmlns="http://www.w3.org/2000/svg" width="24" height="24" viewBox="0 0 24 24">
  <defs>
    <style>
      .cls-1 {
        fill: #707480;
        fill-rule: evenodd;
      }
    </style>
  </defs>
  <path id="ico_argila.svg" class="cls-1" d="M1176,252V228h24v24h-24Zm22-22h-20v20h20V230Zm-19.35,11.446a0.607,0.607,0,0,1,.39.244,0.714,0.714,0,0,1,.15.822c-0.18.044-.42,0.111-0.67,0.2a0.987,0.987,0,0,1-.23-0.866A0.419,0.419,0,0,1,1178.65,241.446Zm0.71,6.261a0.83,0.83,0,0,1,.5.089,0.57,0.57,0,0,1,.22.178,0.677,0.677,0,0,1,.07.888,0.73,0.73,0,0,1-1.06-.222,1.258,1.258,0,0,1-.09-0.333A0.621,0.621,0,0,1,1179.36,247.707Zm1-14.254a0.293,0.293,0,0,1,.27,0,1.6,1.6,0,0,1,.43,1,2.741,2.741,0,0,1-.36.066,0.5,0.5,0,0,1-.59-0.266A0.734,0.734,0,0,1,1180.36,233.453Zm1.56,9.592a1.489,1.489,0,0,1,.58,1.2,0.482,0.482,0,0,1-.51.489,0.956,0.956,0,0,1-.57-1.688A0.343,0.343,0,0,1,1181.92,243.045Zm-0.03-4.22c-0.02-.288.23-0.466,0.63-0.444a0.468,0.468,0,0,1,.54.489,0.537,0.537,0,0,1-.54.51A0.616,0.616,0,0,1,1181.89,238.825Zm0.41-3.22a1,1,0,0,1,.83-0.821,0.749,0.749,0,0,1,.83.4,0.618,0.618,0,0,1,0,.711,0.8,0.8,0,0,1-.69.289c-0.27-.089-0.54-0.156-0.79-0.267A0.407,0.407,0,0,1,1182.3,235.605Zm3.76,11.259a5.945,5.945,0,0,1,.11.8,0.613,0.613,0,0,1-.61.644,0.785,0.785,0,0,1-.85-0.6,0.639,0.639,0,0,1,.11-0.355A1.2,1.2,0,0,1,1186.06,246.864Zm0.9-3.731a0.742,0.742,0,0,1,.88.689,0.654,0.654,0,0,1-.95.577,0.711,0.711,0,0,0-.22-0.111c-0.41-.2-0.5-0.377-0.23-0.733A1.615,1.615,0,0,1,1186.96,243.133Zm0.09-9.393a0.742,0.742,0,0,1-.74-0.844,0.78,0.78,0,0,1,.81-0.688c0.58,0.044.87,0.266,0.85,0.644A0.778,0.778,0,0,1,1187.05,233.74Zm2.23,7.35a0.388,0.388,0,0,1,.31.467,0.453,0.453,0,0,1-.49.488,0.367,0.367,0,0,1-.36-0.377A0.714,0.714,0,0,1,1189.28,241.09Zm-0.07-3.508a0.9,0.9,0,0,1,.7-0.777,0.706,0.706,0,0,1,.56.755,0.571,0.571,0,0,1-.63.6A0.525,0.525,0,0,1,1189.21,237.582Zm3.22,4.352a0.642,0.642,0,0,1,.65.755,0.54,0.54,0,0,1-.65.511,0.882,0.882,0,0,1-.81-0.622A0.711,0.711,0,0,1,1192.43,241.934Zm0.73,3.84a1.166,1.166,0,0,1,.95.689,1.131,1.131,0,0,1-.57.866,0.125,0.125,0,0,1-.09.022,1.064,1.064,0,0,1-.9-0.844A0.779,0.779,0,0,1,1193.16,245.774Zm3.06-14.765a0.52,0.52,0,0,1,.56.578,1,1,0,0,1-.45.932,1.041,1.041,0,0,1-.96-0.377,0.372,0.372,0,0,1-.07-0.533A1.354,1.354,0,0,1,1196.22,231.009Zm0.82,13.5a0.353,0.353,0,0,1,.14.267,1.822,1.822,0,0,1-.27.71,1.011,1.011,0,0,1-.59.267,0.519,0.519,0,0,1-.63-0.578A0.879,0.879,0,0,1,1197.04,244.51Zm-0.73,3.286a0.766,0.766,0,0,1,.65.91,0.552,0.552,0,0,1-.78.067,0.693,0.693,0,0,1-.05-0.888A0.829,0.829,0,0,1,1196.31,247.8Zm0.51-12.124a0.771,0.771,0,0,1,.6-0.555,0.638,0.638,0,0,1,.54.622,0.6,0.6,0,0,1-.56.577A0.8,0.8,0,0,1,1196.82,235.672Zm-4.03,3.087a0.508,0.508,0,0,1,.47.555,0.488,0.488,0,0,1-.49.555,0.641,0.641,0,0,1-.61-0.422A0.787,0.787,0,0,1,1192.79,238.759Zm0.46-2.4a0.754,0.754,0,0,1-.9-0.511,0.7,0.7,0,0,1,.07-0.422,1.356,1.356,0,0,1,.9-0.644,0.534,0.534,0,0,1,.56.378,2.594,2.594,0,0,1,.07.355A0.808,0.808,0,0,1,1193.25,236.361Zm-6.61,3.13a0.5,0.5,0,0,1-.49.511,0.631,0.631,0,0,1-.72-0.533,0.742,0.742,0,0,1,.72-0.51A0.491,0.491,0,0,1,1186.64,239.491Z" transform="translate(-1176 -228)"/>
</svg>
