<?xml version="1.0" encoding="utf-8"?>
<svg xmlns="http://www.w3.org/2000/svg"
	xmlns:xlink="http://www.w3.org/1999/xlink"
	width="24px" height="24px" viewBox="0 0 24 24">
<path fillRule="evenodd" d="M-0 24C-0 24-0 0-0 0-0 0 24 0 24 0 24 0 24 24 24 24 24 24-0 24-0 24ZM 22 2C 22 2 2 2 2 2 2 2 2 22 2 22 2 22 22 22 22 22 22 22 22 2 22 2ZM 10.5 14.09C 10.5 14.09 16.36 8.22 16.36 8.22 16.36 8.22 17.78 9.64 17.78 9.64 17.78 9.64 10.64 16.78 10.64 16.78 10.64 16.78 10.36 16.78 10.36 16.78 10.36 16.78 6.22 12.64 6.22 12.64 6.22 12.64 7.64 11.22 7.64 11.22 7.64 11.22 10.5 14.09 10.5 14.09Z" fill="rgb(111,115,127)"/></svg>