<svg width="252" height="252" viewBox="0 0 252 252" fill="none" xmlns="http://www.w3.org/2000/svg">
<path d="M126 0C56.523 0 0 56.523 0 126C0 195.477 56.523 252 126 252C195.477 252 252 195.477 252 126C252 56.523 195.477 0 126 0ZM126 234C66.449 234 18 185.551 18 126C18 66.449 66.449 18 126 18C185.551 18 234 66.449 234 126C234 185.551 185.551 234 126 234Z" fill="white"/>
<path d="M164.612 87.388C161.097 83.873 155.399 83.873 151.884 87.388L126 113.272L100.115 87.387C96.6 83.872 90.902 83.872 87.387 87.387C83.872 90.902 83.872 96.6 87.387 100.115L113.272 126L87.387 151.885C83.872 155.4 83.872 161.098 87.387 164.613C89.144 166.37 91.448 167.249 93.751 167.249C96.054 167.249 98.357 166.37 100.115 164.613L126 138.728L151.885 164.613C153.642 166.37 155.946 167.249 158.249 167.249C160.552 167.249 162.855 166.37 164.613 164.613C168.128 161.098 168.128 155.4 164.613 151.885L138.728 126L164.613 100.115C168.127 96.601 168.127 90.902 164.612 87.388Z" fill="white"/>
</svg>
